<?xml version="1.0" encoding="utf-8"?>
<!-- Generator: Adobe Illustrator 20.0.0, SVG Export Plug-In . SVG Version: 6.00 Build 0)  -->
<svg version="1.1" id="Layer_1" xmlns="http://www.w3.org/2000/svg" xmlns:xlink="http://www.w3.org/1999/xlink" x="0px" y="0px"
	 viewBox="0 0 250 250" style="enable-background:new 0 0 250 250;" xml:space="preserve">
<style type="text/css">
	.st0{fill:#FFFFFF;}
</style>
<g>
	<path class="st0" d="M-0.2,0.1v250h250V0.1H-0.2z M211.2,80.8c0.2,1.9,0.2,3.8,0.2,5.7c0,59-45,126.9-126.9,126.9
		c-25.3,0-48.6-7.4-68.3-19.9c3.4,0.4,7,0.6,10.6,0.6c21,0,40.1-7.2,55.4-19.1c-19.5-0.4-35.9-13.4-41.6-31c2.8,0.4,5.5,0.8,8.3,0.8
		c4,0,7-0.6,10.8-1.7c-20.4-4-36.7-22.1-36.7-43.7c0-0.2,0-0.4,0-0.4c6.8,3.2,13.8,5.3,21.2,5.5c-12.1-8.1-19.3-21.6-19.3-37.1
		c0-8.1,2.3-15.9,6.2-22.5c22.1,27.2,55,44.8,92.1,46.7c-0.8-3.2-1.1-6.8-1.1-10.2c0-24.6,19.9-44.6,44.6-44.6
		c12.7,0,24.4,5.3,32.5,14c10.2-1.9,19.7-5.7,28.4-10.8c-3.4,10.4-10.4,19.3-19.7,24.8c9.1-1.3,17.6-3.6,25.7-7.2
		C227.5,66.8,219.9,74.6,211.2,80.8z"/>
</g>
</svg>
