<?xml version="1.0" encoding="utf-8"?>
<!-- Generator: Adobe Illustrator 19.0.1, SVG Export Plug-In . SVG Version: 6.00 Build 0)  -->
<svg version="1.1" id="Layer_1" xmlns="http://www.w3.org/2000/svg" xmlns:xlink="http://www.w3.org/1999/xlink" x="0px" y="0px"
	 viewBox="70 -70 250 250" enable-background="new 70 -70 250 250" xml:space="preserve">
<g>
	<path fill="#FFFFFF" d="M194.265-54.225c-30.235,0-57.61,12.257-77.432,32.077l0,0C97.015-2.33,84.758,25.047,84.758,55.284l0,0
		c0,30.233,12.257,57.608,32.075,77.43l0,0c19.822,19.816,47.197,32.071,77.432,32.071l0,0c30.235,0,57.611-12.255,77.433-32.071
		l0,0c19.818-19.822,32.079-47.197,32.079-77.43l0,0c0-30.237-12.261-57.614-32.079-77.432l0,0
		C251.876-41.967,224.5-54.225,194.265-54.225L194.265-54.225 M280.658-31.113L280.658-31.113 M194.265-67.5
		c67.801,0,122.785,54.978,122.785,122.784l0,0c0,67.795-54.984,122.782-122.785,122.782l0,0
		c-67.801,0-122.784-54.987-122.784-122.782l0,0C71.481-12.522,126.464-67.5,194.265-67.5L194.265-67.5 M107.873-31.113
		L107.873-31.113"/>
	<path fill="#FFFFFF" d="M136.174,54.318c0-7.187-4.741-11.236-11.448-11.236h-4.108v22.469h3.999
		C130.847,65.552,136.174,62.141,136.174,54.318L136.174,54.318z M209.382,62.377l-30.315,23.846l-27.72-21.794
		c-3.993,9.6-13.626,16.294-24.779,16.294h-23.69V27.915h23.688c12.447,0,21.399,7.869,24.766,16.304l27.735-21.794l10.277,8.078
		l-25.398,19.975l4.867,3.821l25.398-19.968l10.279,8.078l-25.402,19.969l4.873,3.828l25.421-19.964V27.915h18.438v37.362h18.351
		v15.461h-36.788V62.377H209.382z M269.516,65.287h18.346v15.451H251.07V27.915h18.445L269.516,65.287L269.516,65.287z"/>
</g>
</svg>
