<?xml version="1.0" encoding="utf-8"?>
<!-- Generator: Adobe Illustrator 21.0.2, SVG Export Plug-In . SVG Version: 6.00 Build 0)  -->
<svg version="1.1" id="Layer_1" xmlns="http://www.w3.org/2000/svg" xmlns:xlink="http://www.w3.org/1999/xlink" x="0px" y="0px"
	 viewBox="0 0 500 500" style="enable-background:new 0 0 500 500;" xml:space="preserve">
<style type="text/css">
	.st0{fill:#FFD220;}
</style>
<path class="st0" d="M98.1,92.4V28.1c0-8.9,7.2-16.1,16.1-16.1c8.9,0,16.1,7.2,16.1,16.1v64.3c0,8.9-7.2,16.1-16.1,16.1
	C105.3,108.5,98.1,101.3,98.1,92.4L98.1,92.4z M371.5,108.5c8.9,0,16.1-7.2,16.1-16.1V28.1c0-8.9-7.2-16.1-16.1-16.1
	c-8.9,0-16.1,7.2-16.1,16.1v64.3C355.4,101.3,362.6,108.5,371.5,108.5L371.5,108.5z M89.2,398H66l-0.1-225.2h353.8v64.3l0.1,160.8
	l-21.4-0.3l-9.9,31.7l64-0.6l-0.6-191.7V76.5c0,0-15.6-0.2-34.8-0.2h-13.4v16.1c0,17.7-14.4,32.2-32.2,32.2s-32.2-14.5-32.2-32.2
	V76.3h-193v16.1c0,17.7-14.4,32.2-32.2,32.2c-17.7,0-32.2-14.5-32.2-32.2V76.3H68.6c-19.3,0-34.9,0.4-34.9,0.4v353.6
	c0,0,15.6-0.2,34.9-0.2h32.7L89.2,398z M468,398"/>
<path class="st0" d="M244.1,219.2c-74.2,0-134.4,60.2-134.4,134.4c0,74.2,60.2,134.4,134.4,134.4c74.2,0,134.4-60.2,134.4-134.4
	C378.5,279.4,318.3,219.2,244.1,219.2z M244.1,454.4c-55.6,0-100.8-45.2-100.8-100.8c0-55.6,45.2-100.8,100.8-100.8
	c55.6,0,100.8,45.2,100.8,100.8C344.9,409.2,299.7,454.4,244.1,454.4z"/>
<path class="st0" d="M292.7,353.6h-50.4v-50.4c0-9.3-7.5-16.8-16.8-16.8c-9.3,0-16.8,7.5-16.8,16.8v67.2c0,9.3,7.5,16.8,16.8,16.8
	h67.2c9.3,0,16.8-7.5,16.8-16.8C309.5,361.1,302,353.6,292.7,353.6L292.7,353.6z"/>
</svg>
