<?xml version="1.0" encoding="UTF-8" standalone="no"?>
<svg width="690px" height="245px" viewBox="0 0 690 245" version="1.1" xmlns="http://www.w3.org/2000/svg" xmlns:xlink="http://www.w3.org/1999/xlink" xmlns:sketch="http://www.bohemiancoding.com/sketch/ns">
    <!-- Generator: Sketch 3.3.3 (12081) - http://www.bohemiancoding.com/sketch -->
    <title>Slice 1</title>
    <desc>Created with Sketch.</desc>
    <defs></defs>
    <g id="Page-1" stroke="none" stroke-width="1" fill="none" fill-rule="evenodd" sketch:type="MSPage">
        <g id="Imported-Layers" sketch:type="MSLayerGroup" fill="#FFFFFF">
            <path d="M322.944645,0.764758621 L329.727388,0.764758621 L329.727388,244.853448 L322.944645,244.853448 L322.944645,0.764758621 Z" id="Fill-1" sketch:type="MSShapeGroup"></path>
            <path d="M122.330413,13.9989655 C92.2999008,13.9989655 65.108876,26.1827931 45.4240496,45.8881379 C25.7420826,65.5848966 13.566314,92.8003103 13.566314,122.854897 C13.566314,152.912345 25.7420826,180.122034 45.4240496,199.827379 C65.108876,219.521276 92.2999008,231.705103 122.330413,231.705103 C152.355207,231.705103 179.543372,219.521276 199.225339,199.827379 C218.910165,180.122034 231.088793,152.912345 231.088793,122.854897 C231.088793,92.8003103 218.910165,65.5848966 199.225339,45.8881379 C179.543372,26.1827931 152.355207,13.9989655 122.330413,13.9989655 M122.330413,0.804827586 C189.663157,0.804827586 244.268248,55.4531724 244.268248,122.854897 C244.268248,190.245172 189.663157,244.904966 122.330413,244.904966 C54.9862314,244.904966 0.381140496,190.245172 0.381140496,122.854897 C0.381140496,55.4531724 54.9862314,0.804827586 122.330413,0.804827586" id="Fill-2" sketch:type="MSShapeGroup"></path>
            <path d="M64.6313388,121.898966 C64.6313388,114.749517 59.9274545,110.725448 53.2619504,110.725448 L49.1842975,110.725448 L49.1842975,133.063897 L53.1561488,133.063897 C59.3441157,133.063897 64.6313388,129.675207 64.6313388,121.898966 L64.6313388,121.898966 Z M137.34281,129.907034 L107.235091,153.613552 L79.7037851,131.94769 C75.7347934,141.49269 66.1726116,148.144138 55.0920331,148.144138 L31.5668926,148.144138 L31.5668926,95.650931 L55.0920331,95.650931 C67.4536694,95.650931 76.3438678,103.472966 79.6894876,111.864552 L107.235091,90.1958276 L117.440661,98.2267931 L92.2169752,118.078103 L97.0466777,121.881793 L122.276083,102.033345 L132.481653,110.061448 L107.255107,129.907034 L112.093388,133.713586 L137.34281,113.870862 L137.34281,95.650931 L155.655074,95.650931 L155.655074,132.789138 L173.878694,132.789138 L173.878694,148.16131 L137.34281,148.16131 L137.34281,129.907034 L137.34281,129.907034 Z M197.057835,132.803448 L215.278595,132.803448 L215.278595,148.16131 L178.74557,148.16131 L178.74557,95.650931 L197.057835,95.650931 L197.057835,132.803448 L197.057835,132.803448 Z" id="Fill-3" sketch:type="MSShapeGroup"></path>
            <path d="M541.936909,195.694552 C486.382463,200.826241 428.468926,192.738034 420.347934,149.283241 C416.387521,127.863517 426.152727,105.135828 439.089124,91.0172414 L439.089124,83.4785517 C415.784165,103.933759 403.156595,129.815448 410.434033,160.390931 C419.718843,199.604138 469.414165,221.813793 545.27681,214.438241 C575.310182,211.530379 614.582612,201.859448 641.899455,186.836448 L641.899455,165.516897 C617.107554,180.308069 576.099405,192.520517 541.936909,195.694552 M688.314926,82.9662414 C675.132612,18.5639655 550.195157,14.4797931 469.662942,63.5471034 L469.662942,68.965 C550.109372,27.5737586 664.217884,27.8284828 674.600744,87.1505862 C678.086479,106.784379 667.048793,127.222414 647.309636,138.996966 L647.309636,154.389172 C671.04638,145.674172 695.397917,117.491379 688.314926,82.9662414" id="Fill-4" sketch:type="MSShapeGroup"></path>
            <path d="M637.410033,73.5872414 L622.838,73.5872414 L622.838,138.530448 C622.838,146.146414 626.521041,152.760655 637.410033,153.813897 L637.410033,73.5872414" id="Fill-5" sketch:type="MSShapeGroup"></path>
            <path d="M463.946793,97.2994828 L449.351884,97.2994828 L449.343306,139.726793 C449.343306,147.357069 453.029207,153.977034 463.946793,155.010241 L463.946793,97.2994828" id="Fill-6" sketch:type="MSShapeGroup"></path>
            <path d="M449.351884,75.564931 L463.895322,75.564931 L463.895322,89.3858621 L449.351884,89.3858621 L449.351884,75.564931 Z" id="Fill-7" sketch:type="MSShapeGroup"></path>
            <path d="M551.184545,154.346241 C539.406248,154.346241 534.404975,146.146414 534.404975,138.058207 L534.404975,81.7269655 L548.85119,81.7269655 L548.85119,97.2994828 L559.731603,97.2994828 L559.731603,108.973862 L548.85119,108.973862 L548.85119,137.168103 C548.85119,140.465207 550.412479,142.294069 553.846744,142.294069 L559.731603,142.294069 L559.731603,154.346241 L551.184545,154.346241" id="Fill-8" sketch:type="MSShapeGroup"></path>
            <path d="M577.763636,130.339207 C577.763636,137.737655 582.387455,143.172724 590.557058,143.172724 C596.968066,143.172724 600.127818,141.392517 603.833736,137.737655 L612.752529,146.249448 C607.033521,151.902034 601.04,155.345103 590.456975,155.345103 C576.634132,155.345103 563.394628,147.794966 563.394628,125.782793 C563.394628,106.973276 574.964182,96.3321034 590.133851,96.3321034 C605.558017,96.3321034 614.425339,108.784966 614.425339,125.133103 L614.425339,130.339207 L577.763636,130.339207 M589.501901,108.286966 C584.563537,108.286966 580.760397,110.839931 579.156215,114.271552 C578.212579,116.337966 577.869438,117.955034 577.763636,120.482241 L600.019157,120.482241 C599.736066,114.271552 596.922314,108.286966 589.501901,108.286966" id="Fill-9" sketch:type="MSShapeGroup"></path>
            <path d="M503.162033,108.973862 C507.408397,108.973862 509.158413,111.066034 509.158413,114.471897 L509.158413,154.426379 L523.604628,154.426379 L523.604628,114.388897 C523.604628,106.280655 519.289636,97.3166552 506.599157,97.3166552 L476.771669,97.2994828 L476.771669,154.426379 L491.212165,154.426379 L491.212165,108.973862 L503.162033,108.973862" id="Fill-10" sketch:type="MSShapeGroup"></path>
            <path d="M653.082975,85.192931 C649.868893,85.192931 647.309636,82.5998966 647.309636,79.3857931 C647.309636,76.1974483 649.868893,73.5872414 653.082975,73.5872414 C656.288479,73.5872414 658.902066,76.1974483 658.902066,79.3857931 C658.902066,82.5998966 656.288479,85.192931 653.082975,85.192931 M653.082975,74.5603448 C650.446512,74.5603448 648.313322,76.7469655 648.313322,79.3857931 C648.313322,82.0532414 650.446512,84.2026552 653.082975,84.2026552 C655.733736,84.2026552 657.929835,82.0532414 657.929835,79.3857931 C657.929835,76.7469655 655.733736,74.5603448 653.082975,74.5603448 M655.653669,82.866069 L654.569917,82.866069 C654.469835,82.866069 654.392628,82.8088276 654.344017,82.7258276 L652.885669,80.2301034 C652.839917,80.1757241 652.714099,80.1127586 652.685504,80.1127586 L652.010661,80.1127586 L652.010661,82.5998966 C652.010661,82.7258276 651.924876,82.866069 651.767603,82.866069 L650.795372,82.866069 C650.640959,82.866069 650.546595,82.7258276 650.546595,82.5998966 L650.546595,76.3319655 C650.546595,75.9742069 650.666694,75.813931 650.986959,75.771 C651.338678,75.730931 652.259438,75.688 652.76557,75.688 C654.569917,75.688 655.627934,76.2174828 655.627934,77.8946552 L655.627934,78.0205862 C655.627934,79.0566552 655.121802,79.6233448 654.324,79.8752069 L655.848116,82.4739655 C655.873851,82.5140345 655.893868,82.5998966 655.893868,82.6571379 C655.893868,82.7487241 655.839537,82.866069 655.653669,82.866069 M654.249653,77.8946552 C654.249653,77.1963103 653.815008,76.9787931 652.885669,76.9787931 L651.964909,76.9787931 L651.964909,78.9593448 C652.110744,78.9593448 652.76557,78.9936897 652.885669,78.9936897 C653.815008,78.9936897 654.249653,78.6817241 654.249653,78.0205862 L654.249653,77.8946552" id="Fill-11" sketch:type="MSShapeGroup"></path>
        </g>
    </g>
</svg>