<?xml version="1.0" encoding="utf-8"?>
<!-- Generator: Adobe Illustrator 19.0.1, SVG Export Plug-In . SVG Version: 6.00 Build 0)  -->
<svg version="1.1" id="Layer_1" xmlns="http://www.w3.org/2000/svg" xmlns:xlink="http://www.w3.org/1999/xlink" x="0px" y="0px"
	 viewBox="100 -100 250 250" style="enable-background:new 100 -100 250 250;" xml:space="preserve">
<style type="text/css">
	.st0{fill:#0085C3;}
	.st1{fill:#0985C3;}
</style>
<g>
	<path class="st0" d="M224.3-84.2c-30.2,0-57.6,12.3-77.4,32.1l0,0C127-32.3,114.8-5,114.8,25.3l0,0c0,30.2,12.3,57.6,32.1,77.4l0,0
		c19.8,19.8,47.2,32.1,77.4,32.1l0,0c30.2,0,57.6-12.3,77.4-32.1l0,0c19.8-19.8,32.1-47.2,32.1-77.4l0,0c0-30.2-12.3-57.6-32.1-77.4
		l0,0C281.9-72,254.5-84.2,224.3-84.2L224.3-84.2 M310.7-61.1L310.7-61.1 M224.3-97.5c67.8,0,122.8,55,122.8,122.8l0,0
		c0,67.8-55,122.8-122.8,122.8l0,0c-67.8,0-122.8-55-122.8-122.8l0,0C101.5-42.5,156.5-97.5,224.3-97.5L224.3-97.5 M137.9-61.1
		L137.9-61.1"/>
	<path class="st1" d="M166.2,24.3c0-7.2-4.7-11.2-11.4-11.2h-4.1v22.5h4C160.8,35.6,166.2,32.1,166.2,24.3L166.2,24.3z M239.4,32.4
		l-30.3,23.8l-27.7-21.8c-4,9.6-13.6,16.3-24.8,16.3h-23.7V-2.1h23.7c12.4,0,21.4,7.9,24.8,16.3l27.7-21.8l10.3,8.1l-25.4,20
		l4.9,3.8l25.4-20l10.3,8.1l-25.4,20l4.9,3.8l25.4-20V-2.1h18.4v37.4h18.4v15.5h-36.8L239.4,32.4L239.4,32.4z M299.5,35.3h18.3v15.5
		h-36.8V-2.1h18.4L299.5,35.3L299.5,35.3z"/>
</g>
</svg>
