<?xml version="1.0" encoding="utf-8"?>
<!-- Generator: Adobe Illustrator 20.0.0, SVG Export Plug-In . SVG Version: 6.00 Build 0)  -->
<svg version="1.1" id="Layer_1" xmlns="http://www.w3.org/2000/svg" xmlns:xlink="http://www.w3.org/1999/xlink" x="0px" y="0px"
	 viewBox="0 0 235 44.2" style="enable-background:new 0 0 235 44.2;" xml:space="preserve">
<style type="text/css">
	.st0{clip-path:url(#SVGID_2_);fill:#FFFFFF;}
	.st1{clip-path:url(#SVGID_4_);fill:#0085C2;}
</style>
<g>
	<g>
		<g>
			<g>
				<g>
					<defs>
						<rect id="SVGID_1_" x="0.3" width="234.7" height="43.6"/>
					</defs>
					<clipPath id="SVGID_2_">
						<use xlink:href="#SVGID_1_"  style="overflow:visible;"/>
					</clipPath>
					<path class="st0" d="M154.6,40.5v-1.6l-0.5-0.5H135l-0.5-0.5V23.4l0.5-0.5h18.1l0.5-0.5v-1.6l-0.5-0.5H135l-0.5-0.5V5.8
						l0.5-0.5h19.2l0.5-0.5V3.3l-0.5-0.5h-22.3l-0.5,0.5v37.2l0.5,0.5h22.3L154.6,40.5z M198.2,40.5V3.1l-0.5-0.5h-3.6l-0.5,0.5
						l-13.4,33.5h-0.5L166.3,3.1l-0.5-0.5h-3.6l-0.5,0.5v37.2l0.5,0.5h2.1l0.5-0.5V8.7h0.5l13,31.9l0.5,0.5h2.5l0.5-0.5l13-31.9h0.5
						v31.9l0.5,0.5h2.1L198.2,40.5z M220.9,41.5c7.2,0,13-3.9,14-12l-0.5-0.5h-2.1l-0.5,0.5c-1,6-4.6,9.3-10.9,9.3
						c-7.7,0-13.4-6-13.4-17s5.6-17,13.4-17c6.1,0,9.9,3.3,10.9,8.7l0.5,0.5h2.1l0.5-0.5c-0.9-7.7-6.7-11.7-14-11.7
						c-8.9,0-16.6,6.5-16.6,19.6C204.4,35,212.2,41.5,220.9,41.5"/>
				</g>
			</g>
		</g>
	</g>
	<g>
		<g>
			<g>
				<g>
					<defs>
						<rect id="SVGID_3_" x="0.3" width="234.7" height="43.6"/>
					</defs>
					<clipPath id="SVGID_4_">
						<use xlink:href="#SVGID_3_"  style="overflow:visible;"/>
					</clipPath>
					<path class="st1" d="M8.4,33.4V10.2h6.5c5.5,0,10,5.2,10,11.6s-4.4,11.6-10,11.6H8.4L8.4,33.4z M15,41c8.4,0,15.5-6,17.6-14.4
						l20.5,17l20.5-17V41h23.3v-7.6H81.7V2.6h-8.3V17L53.8,33.3l-4.4-3.6l9.5-7.7l10.2-8.5l-5.8-4.8L43.4,24.8L39,21.2L58.7,5
						L53,0.2L32.5,17.1C30.5,8.8,23.3,2.7,15,2.7H0.2v38.3L15,41L15,41z M99.7,2.6h8.2 M123.1,33.4V41H99.8V2.6h8.2v30.7
						C108,33.4,123.1,33.4,123.1,33.4z"/>
				</g>
			</g>
		</g>
	</g>
</g>
</svg>
