<?xml version="1.0" encoding="utf-8"?>
<!-- Generator: Adobe Illustrator 21.0.2, SVG Export Plug-In . SVG Version: 6.00 Build 0)  -->
<svg version="1.1" id="Layer_1" xmlns="http://www.w3.org/2000/svg" xmlns:xlink="http://www.w3.org/1999/xlink" x="0px" y="0px"
	 viewBox="0 0 500 500" style="enable-background:new 0 0 500 500;" xml:space="preserve">
<style type="text/css">
	.st0{fill:#FFD220;}
</style>
<g>
	<g>
		<path class="st0" d="M250.5,57c-54.2,0-98.3,44.1-98.3,98.3c0,14.1,2.9,27.6,8.6,40.1c24.6,53.8,71.7,110.6,85.6,126.7
			c1,1.2,2.5,1.9,4.1,1.9c1.6,0,3.1-0.7,4.2-1.9c13.9-16.1,61-72.9,85.6-126.7c5.7-12.5,8.6-26,8.6-40.1
			C348.8,101.1,304.7,57,250.5,57L250.5,57z M250.5,206.4c-28.2,0-51.1-22.9-51.1-51.1c0-28.2,22.9-51.1,51.1-51.1
			c28.2,0,51.1,22.9,51.1,51.1C301.6,183.5,278.7,206.4,250.5,206.4L250.5,206.4z M250.5,206.4"/>
	</g>
	<path class="st0" d="M398.8,261.8h-72c-3.4,5.2-6.8,10.3-10.3,15.2h72.5l69.2,150.7H42.8L112,277h72.5c-3.4-5-6.9-10-10.3-15.2h-72
		L19,443h463L398.8,261.8z"/>
	<path class="st0" d="M87.8,392.3c35.7-0.9,129.7,10.3,177-17.9c53.3-31.7,116.5-64.2,116.5-64.2l-5.1-12.3l-71.3,0.6l-54.4,60.7
		l-51.8-61.8l-71.3,0.9L87.8,392.3z"/>
</g>
</svg>
