<?xml version="1.0" encoding="utf-8"?>
<!-- Generator: Adobe Illustrator 20.0.0, SVG Export Plug-In . SVG Version: 6.00 Build 0)  -->
<svg version="1.1" id="Layer_1" xmlns="http://www.w3.org/2000/svg" xmlns:xlink="http://www.w3.org/1999/xlink" x="0px" y="0px"
	 viewBox="0 0 250 250" style="enable-background:new 0 0 250 250;" xml:space="preserve">
<style type="text/css">
	.st0{fill:#FFFFFF;}
</style>
<path class="st0" d="M0,0v250h250V0H0z M211.3,178.2v15.4H38.7v-15.4v-76.5c2.9,3.2,6.2,6,9.8,8.4c16,10.9,32.2,21.8,47.9,33.2
	c8.1,6,18.1,13.3,28.6,13.3h0.1h0.1c10.5,0,20.5-7.3,28.6-13.3c15.7-11.4,31.9-22.3,47.9-33.2c3.4-2.4,6.7-5.2,9.6-8.4L211.3,178.2
	L211.3,178.2z M211.3,73.4c0,10.8-8,20.5-16.5,26.4c-15,10.4-30.2,20.8-45.1,31.3c-6.2,4.3-16.9,13.2-24.7,13.2H125h-0.1
	c-7.8,0-18.4-8.9-24.7-13.2c-14.9-10.5-30-20.9-45-31.3c-6.8-4.6-16.6-15.5-16.6-24.3c0-9.4,0-17.5,0-17.5h172.6
	C211.3,57.9,211.3,64.9,211.3,73.4z"/>
</svg>
