<?xml version="1.0" encoding="utf-8"?>
<!-- Generator: Adobe Illustrator 20.0.0, SVG Export Plug-In . SVG Version: 6.00 Build 0)  -->
<svg version="1.1" id="Layer_1" xmlns="http://www.w3.org/2000/svg" xmlns:xlink="http://www.w3.org/1999/xlink" x="0px" y="0px"
	 viewBox="0 0 250 250" style="enable-background:new 0 0 250 250;" xml:space="preserve">
<style type="text/css">
	.st0{fill:#FFFFFF;}
</style>
<g>
	<path class="st0" d="M118.2,140.5c-0.9-0.5-1.9-0.9-3-1.1s-2.4-0.3-3.6-0.3h-8.4v14.8h8.4c1.2,0,2.4-0.1,3.6-0.3
		c1.2-0.2,2.2-0.5,3-1.1c0.9-0.5,1.6-1.3,2.1-2.2c0.5-1,0.8-2.2,0.8-3.8c0-1.6-0.3-2.8-0.8-3.8C119.8,141.8,119.1,141,118.2,140.5z"
		/>
	<path class="st0" d="M168.1,144.3c-1.1-1.4-2.6-2.5-4.4-3.3c-1.8-0.8-4.1-1.1-6.7-1.1h-7.7v31.1h9.7c1.6,0,3.1-0.3,4.6-0.8
		c1.5-0.5,2.8-1.3,3.9-2.5c1.2-1.2,2.1-2.7,2.8-4.6c0.7-1.9,1-4.2,1-6.9c0-2.5-0.2-4.7-0.7-6.7C170,147.4,169.2,145.7,168.1,144.3z"
		/>
	<path class="st0" d="M250,107.5H77.9c-6.1,0-11,0-11,0v94.6c0,0,4.9,0,11,0H250c0,0,0-4.9,0-11v-72.6
		C250,112.5,250,107.5,250,107.5z M130.7,152.4c-0.6,1.9-1.6,3.6-3,5c-1.4,1.5-3.1,2.7-5.3,3.6c-2.2,0.9-4.8,1.4-7.9,1.4h-11.4v17.7
		H92.3v-49.3h22.2c3.1,0,5.7,0.4,7.9,1.4c2.2,0.9,3.9,2.1,5.3,3.6c1.4,1.5,2.3,3.2,3,5.1c0.6,1.9,0.9,3.9,0.9,5.8
		C131.6,148.6,131.3,150.5,130.7,152.4z M180.6,165.1c-0.9,3-2.3,5.7-4.2,7.9c-1.9,2.2-4.2,3.9-7,5.2c-2.8,1.3-6.1,1.9-9.8,1.9
		h-21.3v-49.3h21.3c3.2,0,6.1,0.5,8.9,1.5c2.7,1,5.1,2.5,7.1,4.6c2,2,3.6,4.6,4.7,7.6c1.1,3,1.7,6.6,1.7,10.7
		C182,158.7,181.6,162,180.6,165.1z M224.2,139.9h-23.8v11.4H221v8.4h-20.7v20.4h-10.8v-49.3h34.7L224.2,139.9L224.2,139.9z"/>
	<path class="st0" d="M215.7,225.7c0,4.6,0,8.4,0,8.4H15.7c0,0,0-3.8,0-8.4V15.9c0,0,3.8-0.2,8.4-0.2h137.4l0.9,1v53.5
		c0,2,1.7,3.7,3.7,3.7h49.1l0.4,0.4v28h15.7v-31c0-2-0.7-3.9-2.1-5.3L170.7,2.5c-1.5-1.6-3.6-2.5-5.8-2.5H24.1C10.8,0,0,0,0,0v225.7
		c0,13.3,0,24.1,0,24.1h231.4c0,0,0-10.8,0-24.1v-11.3h-15.7V225.7z M169.8,24.7l38.6,41.8h-38.6V24.7z"/>
</g>
</svg>
