<?xml version="1.0" encoding="utf-8"?>
<!-- Generator: Adobe Illustrator 20.0.0, SVG Export Plug-In . SVG Version: 6.00 Build 0)  -->
<svg version="1.1" id="Layer_1" xmlns="http://www.w3.org/2000/svg" xmlns:xlink="http://www.w3.org/1999/xlink" x="0px" y="0px"
	 viewBox="0 0 250 250" style="enable-background:new 0 0 250 250;" xml:space="preserve">
<style type="text/css">
	.st0{fill:#FFFFFF;}
</style>
<g>
	<path class="st0" d="M250,46.9v156.3c0,25.9,0,46.9,0,46.9h-77.5v-96.8h32.4l4.9-37.8h-37.3V91.3c0-10.9,2.9-18.2,18.7-18.2
		l19.9-0.2V39.2c-3.4-0.5-15.3-1.5-29-1.5c-28.8,0-48.7,17.6-48.7,49.8v27.8h-32.6v37.8h32.6V250H0c0,0,0-21,0-46.9V46.9
		C0,21,0,0,0,0h250C250,0,250,21,250,46.9z"/>
</g>
</svg>
