<?xml version="1.0" encoding="utf-8"?>
<!-- Generator: Adobe Illustrator 20.0.0, SVG Export Plug-In . SVG Version: 6.00 Build 0)  -->
<svg version="1.1" id="Layer_1" xmlns="http://www.w3.org/2000/svg" xmlns:xlink="http://www.w3.org/1999/xlink" x="0px" y="0px"
	 viewBox="0 0 250 250" style="enable-background:new 0 0 250 250;" xml:space="preserve">
<style type="text/css">
	.st0{fill:#FFFFFF;}
</style>
<g>
	<path class="st0" d="M250,203.1c0,25.9,0,46.9,0,46.9H0c0,0,0-21,0-46.9V46.9C0,21,0,0,0,0h250c0,0,0,21,0,46.9V203.1z M57.6,42
		c-12.9,0-21.3,8.5-21.3,19.5c0,10.7,8.1,19.5,20.8,19.5h0.2c13.2,0,21.3-8.8,21.3-19.5C78.5,50.5,70.5,42,57.6,42z M76.2,209.3
		v-113H38.6v113H76.2z M211.4,209.3v-64.8c0-34.7-18.6-50.8-43.3-50.8c-20.2,0-29.1,11.2-34,19h0.3V96.4H96.8c0,0,0.5,10.6,0,113
		h37.6v-63.2c0-3.3,0.2-6.7,1.1-9.1c2.8-6.7,9-13.7,19.4-13.7c13.5,0,18.9,10.3,18.9,25.6v60.4H211.4z"/>
</g>
</svg>
